# xmcd
#
# Track frame offsets:
#	150
#	19801
#	43454
#	66351
#	85561
#	104622
#	123158
#	141954
#
# Disc length: 2112 seconds
#
# Revision: 5
# Processed by: cddbd v1.5.2PL0 Copyright (c) Steve Scherf et al.
# Submitted via: Jack! The Knife 20 Magnifico
#
DISCID=6f083e08
DTITLE=Samuele Bersani - C'hanno Preso Tutto
DYEAR=1992
DGENRE=Pop
TTITLE0=Chicco E Spillo
TTITLE1=Il Mostro
TTITLE2=Restiamo Ancora Qui
TTITLE3=Voglio Un Pianoforte
TTITLE4=Domatore
TTITLE5=2 Settembre
TTITLE6=Dalla Piccola Finestra
TTITLE7=Bottiglie Vuote
EXTD=Bruno Mariani
EXTT0=Samuele Bersani
EXTT1=Samuele Bersani
EXTT2=Samuele Bersani
EXTT3=Samuele Bersani
EXTT4=Samuele Bersani
EXTT5=Samuele Bersani
EXTT6=Samuele Bersani
EXTT7=Samuele Bersani
PLAYORDER=
